<svg height="512pt" viewBox="0 -26 512 512" width="512pt" xmlns="http://www.w3.org/2000/svg"><path d="m331.828125 70.558594c0-38.90625-31.648437-70.558594-70.554687-70.558594s-70.558594 31.652344-70.558594 70.558594h30c0-22.367188 18.195312-40.558594 40.558594-40.558594 22.363281 0 40.554687 18.191406 40.554687 40.558594 0 22.363281-18.191406 40.554687-40.554687 40.554687h-261.273438v30h261.273438c38.90625 0 70.554687-31.652343 70.554687-70.554687zm0 0" fill="#00d7df"/><path d="m398.265625 201.113281c32.023437 0 62.34375 10.347657 87.691406 29.925781l18.339844-23.738281c-30.648437-23.675781-67.3125-36.1875-106.03125-36.1875h-53.820313c28.925782-23.96875 47.382813-60.144531 47.382813-100.558593h-30c0 55.449218-45.109375 100.558593-100.554687 100.558593h-261.273438v30zm0 0" fill="#dce1eb"/><path d="m398.265625 232.644531h-398.265625v29.996094h398.265625c46.171875 0 83.734375 37.566406 83.734375 83.738281 0 46.175782-37.5625 83.738282-83.734375 83.738282-46.175781 0-83.738281-37.5625-83.738281-83.738282h-30c0 62.714844 51.023437 113.738282 113.738281 113.738282 62.710937 0 113.734375-51.023438 113.734375-113.738282s-51.023438-113.734375-113.734375-113.734375zm0 0" fill="#00aadf"/><path d="m0 292.777344h204.257812v29.996094h-204.257812zm0 0" fill="#545ac3"/><path d="m261.273438 0c-38.90625 0-70.558594 31.652344-70.558594 70.558594h30c0-22.367188 18.195312-40.558594 40.558594-40.558594 22.363281 0 40.554687 18.191406 40.554687 40.558594 0 22.363281-18.191406 40.554687-40.554687 40.554687h-52.273438v30h52.273438c38.90625 0 70.554687-31.652343 70.554687-70.558593 0-38.902344-31.648437-70.554688-70.554687-70.554688zm0 0" fill="#00b6be"/><path d="m398.265625 171.113281h-53.820313c28.925782-23.964843 47.382813-60.144531 47.382813-100.554687h-30c0 55.445312-45.109375 100.554687-100.554687 100.554687h-52.273438v30h189.265625c32.019531 0 62.34375 10.347657 87.691406 29.925781l18.339844-23.738281c-30.648437-23.671875-67.3125-36.1875-106.03125-36.1875zm0 0" fill="#b6c4cf"/><path d="m398.265625 232.644531h-189.265625v29.996094h189.265625c46.171875 0 83.734375 37.566406 83.734375 83.738281 0 46.175782-37.5625 83.738282-83.734375 83.738282-46.175781 0-83.738281-37.5625-83.738281-83.738282h-30c0 62.714844 51.023437 113.738282 113.738281 113.738282 62.710937 0 113.734375-51.023438 113.734375-113.738282s-51.023438-113.734375-113.734375-113.734375zm0 0" fill="#007fc5"/></svg>